<?xml version="1.0" encoding="UTF-8" standalone="no"?>
<svg
   xmlns:dc="http://purl.org/dc/elements/1.1/"
   xmlns:cc="http://creativecommons.org/ns#"
   xmlns:rdf="http://www.w3.org/1999/02/22-rdf-syntax-ns#"
   xmlns:svg="http://www.w3.org/2000/svg"
   xmlns="http://www.w3.org/2000/svg"
   xmlns:sodipodi="http://sodipodi.sourceforge.net/DTD/sodipodi-0.dtd"
   xmlns:inkscape="http://www.inkscape.org/namespaces/inkscape"
   width="16"
   height="16"
   viewBox="0 0 4.2333332 4.2333335"
   version="1.1"
   id="svg8"
   inkscape:version="1.0.2 (e86c870879, 2021-01-15)"
   sodipodi:docname="circle-symbolic (copy).svg">
  <defs
     id="defs2" />
  <sodipodi:namedview
     id="base"
     pagecolor="#ffffff"
     bordercolor="#666666"
     borderopacity="1.0"
     inkscape:pageopacity="0.0"
     inkscape:pageshadow="2"
     inkscape:zoom="22.4"
     inkscape:cx="3.6916876"
     inkscape:cy="9.0731114"
     inkscape:document-units="mm"
     inkscape:current-layer="layer1"
     inkscape:document-rotation="0"
     showgrid="false"
     units="px"
     inkscape:window-width="1680"
     inkscape:window-height="981"
     inkscape:window-x="0"
     inkscape:window-y="0"
     inkscape:window-maximized="1" />
  <metadata
     id="metadata5">
    <rdf:RDF>
      <cc:Work
         rdf:about="">
        <dc:format>image/svg+xml</dc:format>
        <dc:type
           rdf:resource="http://purl.org/dc/dcmitype/StillImage" />
        <dc:title />
      </cc:Work>
    </rdf:RDF>
  </metadata>
  <g
     inkscape:label="Layer 1"
     inkscape:groupmode="layer"
     id="layer1">
    <filter
       id="a"
       height="1"
       width="1"
       x="0"
       y="0">
      <feColorMatrix
         in="SourceGraphic"
         type="matrix"
         values="0 0 0 0 1 0 0 0 0 1 0 0 0 0 1 0 0 0 1 0"
         id="feColorMatrix833" />
    </filter>
    <mask
       id="b">
      <g
         filter="url(#a)"
         id="g838">
        <path
           d="M 0,0 H 16 V 16 H 0 Z"
           fill-opacity="0.3"
           id="path836" />
      </g>
    </mask>
    <clipPath
       id="c">
      <path
         d="M 0,0 H 1024 V 800 H 0 Z"
         id="path841" />
    </clipPath>
    <mask
       id="d">
      <g
         filter="url(#a)"
         id="g846">
        <path
           d="M 0,0 H 16 V 16 H 0 Z"
           fill-opacity="0.05"
           id="path844" />
      </g>
    </mask>
    <clipPath
       id="e">
      <path
         d="M 0,0 H 1024 V 800 H 0 Z"
         id="path849" />
    </clipPath>
    <mask
       id="f">
      <g
         filter="url(#a)"
         id="g854">
        <path
           d="M 0,0 H 16 V 16 H 0 Z"
           fill-opacity="0.05"
           id="path852" />
      </g>
    </mask>
    <clipPath
       id="g">
      <path
         d="M 0,0 H 1024 V 800 H 0 Z"
         id="path857" />
    </clipPath>
    <mask
       id="h">
      <g
         filter="url(#a)"
         id="g862">
        <path
           d="M 0,0 H 16 V 16 H 0 Z"
           fill-opacity="0.05"
           id="path860" />
      </g>
    </mask>
    <clipPath
       id="i">
      <path
         d="M 0,0 H 1024 V 800 H 0 Z"
         id="path865" />
    </clipPath>
    <mask
       id="j">
      <g
         filter="url(#a)"
         id="g870">
        <path
           d="M 0,0 H 16 V 16 H 0 Z"
           fill-opacity="0.05"
           id="path868" />
      </g>
    </mask>
    <clipPath
       id="k">
      <path
         d="M 0,0 H 1024 V 800 H 0 Z"
         id="path873" />
    </clipPath>
    <mask
       id="l">
      <g
         filter="url(#a)"
         id="g878">
        <path
           d="M 0,0 H 16 V 16 H 0 Z"
           fill-opacity="0.05"
           id="path876" />
      </g>
    </mask>
    <clipPath
       id="m">
      <path
         d="M 0,0 H 1024 V 800 H 0 Z"
         id="path881" />
    </clipPath>
    <mask
       id="n">
      <g
         filter="url(#a)"
         id="g886">
        <path
           d="M 0,0 H 16 V 16 H 0 Z"
           fill-opacity="0.05"
           id="path884" />
      </g>
    </mask>
    <clipPath
       id="o">
      <path
         d="M 0,0 H 1024 V 800 H 0 Z"
         id="path889" />
    </clipPath>
    <mask
       id="p">
      <g
         filter="url(#a)"
         id="g894">
        <path
           d="M 0,0 H 16 V 16 H 0 Z"
           fill-opacity="0.3"
           id="path892" />
      </g>
    </mask>
    <clipPath
       id="q">
      <path
         d="M 0,0 H 1024 V 800 H 0 Z"
         id="path897" />
    </clipPath>
    <mask
       id="r">
      <g
         filter="url(#a)"
         id="g902">
        <path
           d="M 0,0 H 16 V 16 H 0 Z"
           fill-opacity="0.5"
           id="path900" />
      </g>
    </mask>
    <clipPath
       id="s">
      <path
         d="M 0,0 H 1024 V 800 H 0 Z"
         id="path905" />
    </clipPath>
    <mask
       id="t">
      <g
         filter="url(#a)"
         id="g910">
        <path
           d="M 0,0 H 16 V 16 H 0 Z"
           fill-opacity="0.4"
           id="path908" />
      </g>
    </mask>
    <clipPath
       id="u">
      <path
         d="M 0,0 H 1024 V 800 H 0 Z"
         id="path913" />
    </clipPath>
    <mask
       id="v">
      <g
         filter="url(#a)"
         id="g918">
        <path
           d="M 0,0 H 16 V 16 H 0 Z"
           fill-opacity="0.4"
           id="path916" />
      </g>
    </mask>
    <clipPath
       id="w">
      <path
         d="M 0,0 H 1024 V 800 H 0 Z"
         id="path921" />
    </clipPath>
    <mask
       id="x">
      <g
         filter="url(#a)"
         id="g926">
        <path
           d="M 0,0 H 16 V 16 H 0 Z"
           fill-opacity="0.5"
           id="path924" />
      </g>
    </mask>
    <clipPath
       id="y">
      <path
         d="M 0,0 H 1024 V 800 H 0 Z"
         id="path929" />
    </clipPath>
    <mask
       id="z">
      <g
         filter="url(#a)"
         id="g934">
        <path
           d="M 0,0 H 16 V 16 H 0 Z"
           fill-opacity="0.5"
           id="path932" />
      </g>
    </mask>
    <clipPath
       id="A">
      <path
         d="M 0,0 H 1024 V 800 H 0 Z"
         id="path937" />
    </clipPath>
    <path
       d="m 2.1166717,0.26458314 c -1.0201,0 -1.85209006,0.83199106 -1.85209006,1.85208406 0,1.020093 0.83199006,1.852083 1.85209006,1.852083 1.02009,0 1.85208,-0.83199 1.85208,-1.852083 0,-1.020093 -0.83199,-1.85208406 -1.85208,-1.85208406 z m 0,0"
       fill="#2e3436"
       id="path940"
       style="fill:#484848;fill-opacity:1;stroke-width:0.264583" />
  </g>
</svg>
