<svg xmlns="http://www.w3.org/2000/svg" height="16" width="16" fill="#2e3436" xmlns:v="https://vecta.io/nano"><path d="M8 4.006a4.02 4.02 0 0 0-4 4 4.02 4.02 0 0 0 4 4 4.02 4.02 0 0 0 4-4 4.02 4.02 0 0 0-4-4zM8 6c1.101 0 2.006.905 2.006 2.006S9.101 10.012 8 10.012s-2.006-.905-2.006-2.006S6.899 6 8 6zm4.596-3.303l.707.707a.5.5 0 0 1 0 .707l-.707.707a.5.5 0 0 1-.707 0l-.707-.707a.5.5 0 0 1 0-.707l.707-.707a.5.5 0 0 1 .707 0zm-8.485 8.485l.707.707a.5.5 0 0 1 0 .707l-.707.707a.5.5 0 0 1-.707 0l-.707-.707a.5.5 0 0 1 0-.707l.707-.707a.5.5 0 0 1 .707 0zM7.5 1.001h1a.5.5 0 0 1 .5.5v1a.5.5 0 0 1-.5.5h-1a.5.5 0 0 1-.5-.5v-1a.5.5 0 0 1 .5-.5zm-.001 12L8.5 13a.5.5 0 0 1 .5.5l.001 1a.5.5 0 0 1-.5.5H7.5a.5.5 0 0 1-.5-.5v-1a.5.5 0 0 1 .5-.5zM1.001 8.5v-1a.5.5 0 0 1 .5-.5h1a.5.5 0 0 1 .5.5v1a.5.5 0 0 1-.5.5h-1a.5.5 0 0 1-.5-.5zm12 .001L13 7.5a.5.5 0 0 1 .5-.5h1a.5.5 0 0 1 .5.5v1.001a.5.5 0 0 1-.5.5L13.5 9a.5.5 0 0 1-.5-.5zm.303 4.096l-.707.707a.5.5 0 0 1-.707 0l-.707-.707a.5.5 0 0 1 0-.707l.707-.707a.5.5 0 0 1 .707 0l.707.707a.5.5 0 0 1 0 .707zM4.818 4.111l-.707.707a.5.5 0 0 1-.707 0l-.707-.707a.5.5 0 0 1 0-.707l.707-.707a.5.5 0 0 1 .707 0l.707.707a.5.5 0 0 1 0 .707z"/></svg>