<svg xmlns="http://www.w3.org/2000/svg" width="16" height="16" fill="#2e3436" xmlns:v="https://vecta.io/nano"><path d="M8 4.006a4.02 4.02 0 0 0-4 4 4.02 4.02 0 0 0 4 4 4.02 4.02 0 0 0 4-4 4.02 4.02 0 0 0-4-4zM7.5 0h1a.5.5 0 0 1 .5.5v2a.5.5 0 0 1-.5.5h-1a.499.499 0 0 1-.5-.5v-2a.5.5 0 0 1 .5-.5zm0 13h1a.5.5 0 0 1 .5.5v2a.5.5 0 0 1-.5.5h-1a.499.499 0 0 1-.5-.5v-2a.5.5 0 0 1 .5-.5zM1.99 2.697l.707-.707a.499.499 0 0 1 .707 0l1.414 1.414a.499.499 0 0 1 0 .707l-.707.707a.499.499 0 0 1-.707 0L1.99 3.404a.499.499 0 0 1 0-.707zm9.192 9.193l.707-.708a.499.499 0 0 1 .707 0l1.415 1.414a.499.499 0 0 1 0 .707l-.708.707a.499.499 0 0 1-.707 0l-1.414-1.414a.499.499 0 0 1 0-.707zm-8.485 2.12l-.707-.707a.499.499 0 0 1 0-.707l1.414-1.414a.499.499 0 0 1 .707 0l.707.707a.499.499 0 0 1 0 .707L3.404 14.01a.499.499 0 0 1-.707 0zm9.193-9.192l-.708-.707a.499.499 0 0 1 0-.707l1.414-1.414a.499.499 0 0 1 .707 0l.708.707a.499.499 0 0 1 0 .707l-1.415 1.414a.499.499 0 0 1-.707 0zM16 7.5v1a.5.5 0 0 1-.5.5h-2a.499.499 0 0 1-.5-.5v-1a.5.5 0 0 1 .5-.5h2a.5.5 0 0 1 .5.5zm-13 0v1a.5.5 0 0 1-.5.5h-2a.499.499 0 0 1-.5-.5v-1A.5.5 0 0 1 .5 7h2a.5.5 0 0 1 .5.5z"/></svg>