<?xml version="1.0" encoding="UTF-8"?>
<svg height="128px" viewBox="0 0 128 128" width="128px" xmlns="http://www.w3.org/2000/svg">
    <path d="m 124 66.003906 c 0 33.136719 -26.863281 60 -60 60 s -60 -26.863281 -60 -60 c 0 -33.136718 26.863281 -60 60 -60 s 60 26.863282 60 60 z m 0 0" fill="#deddda"/>
    <path d="m 124 64.003906 c 0 33.136719 -26.863281 60 -60 60 s -60 -26.863281 -60 -60 c 0 -33.136718 26.863281 -60 60 -60 s 60 26.863282 60 60 z m 0 0" fill="#f6f5f4"/>
    <path d="m 108.847656 66.003906 c 0 24.769532 -20.078125 44.847656 -44.847656 44.847656 s -44.851562 -20.078124 -44.851562 -44.847656 c 0 -24.773437 20.082031 -44.851562 44.851562 -44.851562 s 44.847656 20.078125 44.847656 44.851562 z m 0 0" fill="#62a0ea"/>
    <path d="m 108.847656 64.003906 c 0 24.769532 -20.078125 44.847656 -44.847656 44.847656 s -44.851562 -20.078124 -44.851562 -44.847656 c 0 -24.769531 20.082031 -44.851562 44.851562 -44.851562 s 44.847656 20.082031 44.847656 44.851562 z m 0 0" fill="#99c1f1"/>
    <path d="m 94.8125 66.003906 c 0 17.015625 -13.792969 30.8125 -30.8125 30.8125 s -30.8125 -13.796875 -30.8125 -30.8125 c 0 -17.019531 13.792969 -30.816406 30.8125 -30.816406 s 30.8125 13.796875 30.8125 30.816406 z m 0 0" fill="#3584e4"/>
    <path d="m 94.8125 64.003906 c 0 17.015625 -13.792969 30.8125 -30.8125 30.8125 s -30.8125 -13.796875 -30.8125 -30.8125 c 0 -17.019531 13.792969 -30.816406 30.8125 -30.816406 s 30.8125 13.796875 30.8125 30.816406 z m 0 0" fill="#62a0ea"/>
    <path d="m 80.777344 66.003906 c 0 9.265625 -7.511719 16.777344 -16.777344 16.777344 s -16.777344 -7.511719 -16.777344 -16.777344 s 7.511719 -16.777344 16.777344 -16.777344 s 16.777344 7.511719 16.777344 16.777344 z m 0 0" fill="#1c71d8"/>
    <path d="m 80.777344 64.003906 c 0 9.265625 -7.511719 16.777344 -16.777344 16.777344 s -16.777344 -7.511719 -16.777344 -16.777344 c 0 -9.269531 7.511719 -16.78125 16.777344 -16.78125 s 16.777344 7.511719 16.777344 16.78125 z m 0 0" fill="#3584e4"/>
</svg>
