<?xml version="1.0" encoding="UTF-8"?>
<svg height="128px" viewBox="0 0 128 128" width="128px" xmlns="http://www.w3.org/2000/svg" xmlns:xlink="http://www.w3.org/1999/xlink">
    <filter id="a" height="100%" width="100%" x="0%" y="0%">
        <feColorMatrix in="SourceGraphic" type="matrix" values="0 0 0 0 1 0 0 0 0 1 0 0 0 0 1 0 0 0 1 0"/>
    </filter>
    <mask id="b">
        <g filter="url(#a)">
            <rect fill-opacity="0.1" height="128" width="128"/>
        </g>
    </mask>
    <clipPath id="c">
        <rect height="152" width="192"/>
    </clipPath>
    <path d="m 122.214844 64.96875 c 0 32.152344 -26.0625 58.21875 -58.214844 58.21875 s -58.214844 -26.066406 -58.214844 -58.21875 c 0 -32.148438 26.0625 -58.214844 58.214844 -58.214844 s 58.214844 26.066406 58.214844 58.214844 z m 0 0" fill="#d5d3cf"/>
    <path d="m 64 8.695312 c 30.007812 0 54.335938 24.324219 54.335938 54.335938 v 1.9375 c 0 30.007812 -24.328126 54.335938 -54.335938 54.335938 s -54.335938 -24.328126 -54.335938 -54.335938 v -1.9375 c 0 -30.011719 24.328126 -54.335938 54.335938 -54.335938 z m 0 0" fill="#d5d3cf"/>
    <path d="m 122.214844 63.03125 c 0 32.148438 -26.0625 58.214844 -58.214844 58.214844 s -58.214844 -26.066406 -58.214844 -58.214844 c 0 -32.152344 26.0625 -58.21875 58.214844 -58.21875 s 58.214844 26.066406 58.214844 58.21875 z m 0 0" fill="#f6f5f4"/>
    <path d="m 116.441406 62.210938 c 0 28.9375 -23.460937 52.394531 -52.394531 52.394531 c -28.9375 0 -52.394531 -23.457031 -52.394531 -52.394531 c 0 -28.933594 23.457031 -52.390626 52.394531 -52.390626 c 28.933594 0 52.394531 23.457032 52.394531 52.390626 z m 0 0" fill="#32598d"/>
    <g clip-path="url(#c)" mask="url(#b)" transform="matrix(1 0 0 1 -8 -16)">
        <path d="m 72 26.636719 c -28.9375 0 -52.394531 23.457031 -52.394531 52.394531 c 0.007812 0.378906 0.023437 0.757812 0.039062 1.132812 c 0.441407 -28.605468 23.746094 -51.570312 52.355469 -51.589843 c 28.480469 0.015625 51.734375 22.78125 52.355469 51.257812 c 0.011719 -0.265625 0.027343 -0.535156 0.039062 -0.800781 c 0 -28.9375 -23.457031 -52.394531 -52.394531 -52.394531 z m 0 0"/>
    </g>
    <path d="m 106.894531 62.210938 c 0 23.664062 -19.183593 42.847656 -42.847656 42.847656 s -42.847656 -19.183594 -42.847656 -42.847656 c 0 -23.664063 19.183593 -42.847657 42.847656 -42.847657 s 42.847656 19.183594 42.847656 42.847657 z m 0 0" fill="#3080e4" fill-opacity="0.591005"/>
    <path d="m 92.101562 62.210938 c 0 15.496093 -12.5625 28.058593 -28.054687 28.058593 c -15.496094 0 -28.058594 -12.5625 -28.058594 -28.058593 c 0 -15.492188 12.5625 -28.054688 28.058594 -28.054688 c 15.492187 0 28.054687 12.5625 28.054687 28.054688 z m 0 0" fill="#3584e4" fill-opacity="0.591005"/>
    <path d="m 74.753906 62.210938 c 0 5.914062 -4.796875 10.707031 -10.707031 10.707031 c -5.914063 0 -10.707031 -4.792969 -10.707031 -10.707031 c 0 -5.910157 4.792968 -10.703126 10.707031 -10.703126 c 5.910156 0 10.707031 4.792969 10.707031 10.703126 z m 0 0" fill="#3584e4" fill-opacity="0.591005"/>
    <path d="m 63.070312 66.535156 c -1.066406 -0.28125 -2.09375 -1.074218 -2.578124 -1.992187 c -1.253907 -2.367188 0.011718 -5.21875 2.613281 -5.878907 c 2.722656 -0.695312 5.382812 1.742188 4.949219 4.53125 c -0.359376 2.335938 -2.734376 3.929688 -4.984376 3.339844 z m 0 0" fill="#424048"/>
    <path d="m 71.644531 67.644531 c -0.265625 -0.144531 -0.34375 -0.5 -0.144531 -0.679687 c 0.054688 -0.050782 0.539062 -0.203125 1.066406 -0.335938 c 2.921875 -0.730468 4.769532 -1.558594 5.769532 -2.578125 c 0.503906 -0.511719 0.6875 -0.90625 0.6875 -1.449219 c 0 -0.546874 -0.183594 -0.941406 -0.6875 -1.449218 c -1 -1.023438 -2.824219 -1.839844 -5.769532 -2.582032 c -0.53125 -0.132812 -1.011718 -0.285156 -1.066406 -0.335937 c -0.113281 -0.101563 -0.140625 -0.355469 -0.050781 -0.515625 c 0.117187 -0.21875 0.320312 -0.242188 1.285156 -0.144531 c 5.925781 0.597656 10.117187 1.839843 11.835937 3.503906 c 0.578126 0.5625 0.789063 1.015625 0.753907 1.621094 c -0.027344 0.492187 -0.191407 0.816406 -0.652344 1.304687 c -1.605469 1.703125 -5.6875 2.960938 -11.65625 3.59375 c -1.230469 0.128906 -1.222656 0.128906 -1.371094 0.046875 z m 0 0" fill="#424048"/>
    <path d="m 55.816406 67.675781 c -0.09375 -0.011719 -0.53125 -0.058593 -0.972656 -0.105469 c -5.414062 -0.566406 -9.507812 -1.796874 -11.257812 -3.378906 c -0.5625 -0.511718 -0.902344 -1.222656 -0.828126 -1.75 c 0.261719 -1.914062 3.796876 -3.578125 9.503907 -4.472656 c 0.859375 -0.136719 2.871093 -0.382812 3.664062 -0.449219 c 0.4375 -0.035156 0.613281 0.023438 0.742188 0.253907 c 0.101562 0.179687 0.046875 0.414062 -0.113281 0.5 c -0.066407 0.035156 -0.597657 0.1875 -1.179688 0.335937 c -2.753906 0.707031 -4.691406 1.589844 -5.621094 2.558594 c -0.1875 0.195312 -0.410156 0.488281 -0.5 0.65625 c -0.136718 0.265625 -0.15625 0.363281 -0.15625 0.777343 c 0 0.410157 0.019532 0.511719 0.15625 0.773438 c 0.21875 0.414062 0.746094 0.949219 1.292969 1.3125 c 1.039063 0.695312 2.859375 1.410156 4.851563 1.910156 c 0.503906 0.125 0.984374 0.257813 1.070312 0.289063 c 0.457031 0.179687 0.28125 0.761719 -0.238281 0.796875 c -0.136719 0.007812 -0.324219 0.003906 -0.414063 -0.007813 z m 0 0" fill="#424048"/>
    <path d="m 73.714844 76.691406 c -0.164063 -0.203125 -0.203125 -0.570312 -0.097656 -0.882812 c 0.082031 -0.238282 0.3125 -0.316406 1.804687 -0.609375 c 10.105469 -2 17.097656 -6.28125 18.261719 -11.183594 c 0.167968 -0.703125 0.167968 -2.125 0 -2.828125 c -1.164063 -4.910156 -8.148438 -9.183594 -18.261719 -11.183594 c -1.492187 -0.296875 -1.722656 -0.375 -1.804687 -0.613281 c -0.105469 -0.308594 -0.066407 -0.675781 0.089843 -0.871094 c 0.179688 -0.222656 0.40625 -0.230469 1.742188 -0.046875 c 6.84375 0.925782 12.609375 2.578125 16.945312 4.851563 c 2.128907 1.117187 3.925781 2.398437 5.136719 3.667969 c 1.785156 1.867187 2.601562 3.628906 2.601562 5.609374 c 0 1.132813 -0.238281 2.066407 -0.8125 3.214844 c -0.820312 1.628906 -2.773437 3.558594 -5.0625 5.007813 c -2.628906 1.660156 -6.4375 3.21875 -10.449218 4.28125 c -2.8125 0.742187 -7.210938 1.5625 -9.277344 1.726562 c -0.628906 0.050781 -0.675781 0.042969 -0.816406 -0.140625 z m 0 0" fill="#424048"/>
    <path d="m 64.054688 69.4375 l -5.085938 8.8125 c -0.003906 0.011719 -0.015625 0.023438 -0.019531 0.035156 l -0.003907 0.007813 c -0.460937 0.847656 -0.703124 1.800781 -0.703124 2.769531 c 0 3.207031 2.601562 5.808594 5.8125 5.808594 c 3.207031 0 5.808593 -2.601563 5.808593 -5.808594 c 0 -0.96875 -0.242187 -1.921875 -0.710937 -2.777344 h 0.007812 z m 0 0" fill="#424048"/>
    <path d="m 64.054688 55.765625 l -5.085938 -8.8125 c -0.003906 -0.011719 -0.015625 -0.023437 -0.019531 -0.039063 l -0.003907 -0.003906 c -0.460937 -0.847656 -0.703124 -1.800781 -0.703124 -2.769531 c 0 -3.210937 2.601562 -5.8125 5.8125 -5.8125 c 3.207031 0 5.808593 2.601563 5.808593 5.8125 c 0 0.96875 -0.242187 1.921875 -0.710937 2.773437 h 0.007812 z m 0 0" fill="#424048"/>
    <path d="m 54.378906 76.707031 c 0.164063 -0.203125 0.203125 -0.570312 0.09375 -0.882812 c -0.078125 -0.238281 -0.308594 -0.316407 -1.800781 -0.609375 c -10.109375 -2 -17.101563 -6.28125 -18.265625 -11.183594 c -0.167969 -0.703125 -0.167969 -2.125 0 -2.828125 c 1.167969 -4.910156 8.152344 -9.183594 18.265625 -11.183594 c 1.492187 -0.296875 1.722656 -0.375 1.800781 -0.613281 c 0.105469 -0.308594 0.070313 -0.675781 -0.089844 -0.871094 c -0.179687 -0.222656 -0.40625 -0.230468 -1.738281 -0.046875 c -6.847656 0.925781 -12.613281 2.578125 -16.949219 4.851563 c -2.128906 1.117187 -3.925781 2.398437 -5.136718 3.667968 c -1.785156 1.867188 -2.601563 3.628907 -2.601563 5.609376 c 0 1.132812 0.238281 2.066406 0.816407 3.214843 c 0.820312 1.628907 2.769531 3.558594 5.0625 5.007813 c 2.625 1.660156 6.4375 3.222656 10.449218 4.28125 c 2.808594 0.742187 7.207032 1.5625 9.273438 1.726562 c 0.628906 0.050782 0.675781 0.042969 0.820312 -0.140625 z m 0 0" fill="#424048"/>
    <g fill="#f6f5f4">
        <path d="m 63.070312 65.757812 c -1.066406 -0.28125 -2.09375 -1.070312 -2.578124 -1.988281 c -1.253907 -2.371093 0.011718 -5.21875 2.613281 -5.882812 c 2.722656 -0.691407 5.382812 1.742187 4.949219 4.53125 c -0.359376 2.339843 -2.734376 3.929687 -4.984376 3.339843 z m 0 0"/>
        <path d="m 71.644531 66.871094 c -0.265625 -0.144532 -0.34375 -0.503906 -0.144531 -0.679688 c 0.054688 -0.054687 0.539062 -0.203125 1.066406 -0.335937 c 2.921875 -0.734375 4.769532 -1.5625 5.769532 -2.582031 c 0.503906 -0.511719 0.6875 -0.90625 0.6875 -1.449219 s -0.183594 -0.9375 -0.6875 -1.449219 c -1 -1.019531 -2.824219 -1.835938 -5.769532 -2.578125 c -0.53125 -0.136719 -1.011718 -0.285156 -1.066406 -0.339844 c -0.113281 -0.101562 -0.140625 -0.355469 -0.050781 -0.515625 c 0.117187 -0.21875 0.320312 -0.242187 1.285156 -0.144531 c 5.925781 0.597656 10.117187 1.839844 11.835937 3.503906 c 0.578126 0.566407 0.789063 1.019531 0.753907 1.625 c -0.027344 0.488281 -0.191407 0.816407 -0.652344 1.304688 c -1.605469 1.703125 -5.6875 2.960937 -11.65625 3.589843 c -1.230469 0.128907 -1.222656 0.128907 -1.371094 0.050782 z m 0 0"/>
        <path d="m 55.816406 66.898438 c -0.09375 -0.011719 -0.53125 -0.058594 -0.972656 -0.105469 c -5.414062 -0.566407 -9.507812 -1.796875 -11.257812 -3.378907 c -0.5625 -0.511718 -0.902344 -1.222656 -0.828126 -1.75 c 0.261719 -1.914062 3.796876 -3.578124 9.503907 -4.472656 c 0.859375 -0.132812 2.871093 -0.378906 3.664062 -0.445312 c 0.4375 -0.039063 0.613281 0.023437 0.742188 0.25 c 0.101562 0.179687 0.046875 0.414062 -0.113281 0.5 c -0.066407 0.035156 -0.597657 0.1875 -1.179688 0.335937 c -2.753906 0.707031 -4.691406 1.589844 -5.621094 2.558594 c -0.1875 0.195313 -0.410156 0.492187 -0.5 0.65625 c -0.136718 0.265625 -0.15625 0.367187 -0.15625 0.777344 c 0 0.414062 0.019532 0.511719 0.15625 0.777343 c 0.21875 0.410157 0.746094 0.949219 1.292969 1.3125 c 1.039063 0.691407 2.859375 1.40625 4.851563 1.90625 c 0.503906 0.125 0.984374 0.257813 1.070312 0.289063 c 0.457031 0.179687 0.28125 0.761719 -0.238281 0.796875 c -0.136719 0.007812 -0.324219 0.007812 -0.414063 -0.007812 z m 0 0"/>
        <path d="m 73.714844 75.914062 c -0.164063 -0.203124 -0.203125 -0.566406 -0.097656 -0.878906 c 0.082031 -0.238281 0.3125 -0.316406 1.804687 -0.613281 c 10.105469 -1.996094 17.097656 -6.277344 18.261719 -11.183594 c 0.167968 -0.703125 0.167968 -2.125 0 -2.828125 c -1.164063 -4.90625 -8.148438 -9.183594 -18.261719 -11.183594 c -1.492187 -0.292968 -1.722656 -0.371093 -1.804687 -0.609374 c -0.105469 -0.308594 -0.066407 -0.679688 0.089843 -0.875 c 0.179688 -0.222657 0.40625 -0.226563 1.742188 -0.046876 c 6.84375 0.929688 12.609375 2.582032 16.945312 4.855469 c 2.128907 1.113281 3.925781 2.394531 5.136719 3.664063 c 1.785156 1.867187 2.601562 3.628906 2.601562 5.609375 c 0 1.132812 -0.238281 2.066406 -0.8125 3.214843 c -0.820312 1.628907 -2.773437 3.5625 -5.0625 5.007813 c -2.628906 1.660156 -6.4375 3.222656 -10.449218 4.28125 c -2.8125 0.746094 -7.210938 1.5625 -9.277344 1.726563 c -0.628906 0.050781 -0.675781 0.042968 -0.816406 -0.140626 z m 0 0"/>
        <path d="m 64.054688 68.660156 l -5.085938 8.8125 c -0.003906 0.011719 -0.015625 0.023438 -0.019531 0.039063 l -0.003907 0.003906 c -0.460937 0.847656 -0.703124 1.800781 -0.703124 2.769531 c 0 3.210938 2.601562 5.8125 5.8125 5.8125 c 3.207031 0 5.808593 -2.601562 5.808593 -5.8125 c 0 -0.96875 -0.242187 -1.921875 -0.710937 -2.773437 h 0.007812 z m 0 0"/>
        <path d="m 64.054688 54.988281 l -5.085938 -8.8125 c -0.003906 -0.011719 -0.015625 -0.023437 -0.019531 -0.035156 l -0.003907 -0.007813 c -0.460937 -0.847656 -0.703124 -1.800781 -0.703124 -2.769531 c 0 -3.207031 2.601562 -5.808593 5.8125 -5.808593 c 3.207031 0 5.808593 2.601562 5.808593 5.808593 c 0 0.96875 -0.242187 1.921875 -0.710937 2.773438 h 0.007812 z m 0 0"/>
        <path d="m 54.378906 75.929688 c 0.164063 -0.203126 0.203125 -0.566407 0.09375 -0.878907 c -0.078125 -0.238281 -0.308594 -0.316406 -1.800781 -0.613281 c -10.109375 -1.996094 -17.101563 -6.277344 -18.265625 -11.183594 c -0.167969 -0.703125 -0.167969 -2.125 0 -2.828125 c 1.167969 -4.90625 8.152344 -9.183593 18.265625 -11.183593 c 1.492187 -0.292969 1.722656 -0.371094 1.800781 -0.609376 c 0.105469 -0.308593 0.070313 -0.679687 -0.089844 -0.871093 c -0.179687 -0.226563 -0.40625 -0.230469 -1.738281 -0.050781 c -6.847656 0.929687 -12.613281 2.582031 -16.949219 4.855468 c -2.128906 1.113282 -3.925781 2.398438 -5.136718 3.664063 c -1.785156 1.867187 -2.601563 3.628906 -2.601563 5.609375 c 0 1.136718 0.238281 2.066406 0.816407 3.214844 c 0.820312 1.628906 2.769531 3.5625 5.0625 5.007812 c 2.625 1.660156 6.4375 3.222656 10.449218 4.285156 c 2.808594 0.742188 7.207032 1.558594 9.273438 1.722656 c 0.628906 0.050782 0.675781 0.042969 0.820312 -0.140624 z m 0 0"/>
    </g>
</svg>
