<?xml version="1.0" encoding="UTF-8" standalone="no"?>
<svg
   height="16"
   viewBox="0 0 16 16"
   width="16"
   version="1.1"
   id="svg12"
   xmlns="http://www.w3.org/2000/svg"
   xmlns:svg="http://www.w3.org/2000/svg">
  <defs
     id="defs16" />
  <path
     d="m 5.5425438,0.50269871 c -0.132813,-0.00391 -0.269531,0.00391 -0.402344,0.019532 -0.53125,0.070312 -1.042969,0.308593 -1.441406,0.70703099 -0.257813,0.253906 -0.363281,0.625 -0.273438,0.976562 0.09375,0.351563 0.367188,0.621094 0.71875,0.714844 0.351563,0.089844 0.722657,-0.015625 0.972657,-0.277344 0.164062,-0.164062 0.398437,-0.191406 0.597656,-0.078125 0.199218,0.113282 0.289062,0.339844 0.230468,0.5625 -0.058593,0.226563 -0.25,0.371094 -0.476562,0.371094 H -4.2522847e-4 v 2 H 5.4683248 c 1.125,0 2.121094,-0.765625 2.4101556,-1.855469 0.289063,-1.085937 -0.1874996,-2.246093 -1.1601556,-2.80859299 -0.367188,-0.210938 -0.773438,-0.320313 -1.175781,-0.332032 z M 12.312074,1.5026987 c -1.546875,0.085938 -2.9023436,1.203125 -3.2382806,2.765625 -0.113281,0.542969 0.230469,1.074219 0.773437,1.1875 0.5390626,0.117188 1.0703126,-0.230469 1.1835936,-0.769531 0.167969,-0.78125 0.886719,-1.285156 1.675781,-1.175781 0.792969,0.113281 1.34375,0.796875 1.289063,1.59375 -0.05469,0.796875 -0.699219,1.394531 -1.496094,1.394531 H -4.2522847e-4 v 2 H 12.499574 c 1.828125,0 3.363281,-1.429688 3.492188,-3.257812 0.128906,-1.824219 -1.195313,-3.453126 -3.003907,-3.710938 -0.226562,-0.03125 -0.453125,-0.039062 -0.675781,-0.027344 z M -4.2522847e-4,9.4987932 V 11.498793 H 9.9995744 h 0.0039 c 0.464844,0 0.859375,0.3125 0.96875,0.769531 0.109375,0.457031 -0.105468,0.914063 -0.523437,1.125 -0.417963,0.210938 -0.910149,0.105469 -1.21093,-0.25 -0.355469,-0.425781 -0.984375,-0.480469 -1.410156,-0.125 -0.4218746,0.355469 -0.4765626,0.984375 -0.1210936,1.40625 0.4414066,0.53125 1.0429686,0.875 1.6914066,1.011719 0.644529,0.132812 1.332029,0.05469 1.949216,-0.257812 1.238282,-0.621094 1.890625,-2.023438 1.574219,-3.371094 C 12.601136,10.459731 11.386293,9.4987932 9.9995744,9.4987932 Z m 0,0"
     fill="#222222"
     id="path288"
     style="fill:#000000;fill-opacity:1" />
</svg>
