<?xml version="1.0" encoding="UTF-8"?>
<svg height="16px" viewBox="0 0 16 16" width="16px" xmlns="http://www.w3.org/2000/svg" xmlns:xlink="http://www.w3.org/1999/xlink">
    <filter id="a" height="100%" width="100%" x="0%" y="0%">
        <feColorMatrix in="SourceGraphic" type="matrix" values="0 0 0 0 1 0 0 0 0 1 0 0 0 0 1 0 0 0 1 0"/>
    </filter>
    <mask id="b">
        <g filter="url(#a)">
            <rect fill-opacity="0.1" height="16" width="16"/>
        </g>
    </mask>
    <clipPath id="c">
        <rect height="152" width="192"/>
    </clipPath>
    <g clip-path="url(#c)" mask="url(#b)" transform="matrix(1 0 0 1 -168 -16)">
        <path d="m 72 26.636719 c -28.9375 0 -52.394531 23.457031 -52.394531 52.394531 c 0.007812 0.378906 0.023437 0.757812 0.039062 1.132812 c 0.441407 -28.605468 23.746094 -51.570312 52.355469 -51.589843 c 28.480469 0.015625 51.734375 22.78125 52.355469 51.257812 c 0.011719 -0.265625 0.027343 -0.535156 0.039062 -0.800781 c 0 -28.9375 -23.457031 -52.394531 -52.394531 -52.394531 z m 0 0"/>
    </g>
    <path d="m 8 0 c -4.417969 0 -8 3.582031 -8 8 s 3.582031 8 8 8 s 8 -3.582031 8 -8 s -3.582031 -8 -8 -8 z m 0 3.296875 c 0.621094 0 1.128906 0.503906 1.128906 1.125 c 0 0.1875 -0.050781 0.375 -0.140625 0.539063 h 0.003907 l -0.992188 1.714843 l -0.984375 -1.707031 c 0 -0.003906 0 -0.003906 -0.003906 -0.007812 c -0.089844 -0.164063 -0.136719 -0.347657 -0.136719 -0.535157 c 0 -0.625 0.503906 -1.128906 1.125 -1.128906 z m 1.957031 1.941406 c 0.046875 0 0.121094 0.007813 0.253907 0.023438 c 1.324218 0.179687 2.441406 0.5 3.28125 0.941406 c 0.414062 0.214844 0.761718 0.464844 0.996093 0.710937 c 0.34375 0.359376 0.503907 0.703126 0.503907 1.085938 c 0 0.21875 -0.046876 0.398438 -0.15625 0.621094 c -0.160157 0.316406 -0.539063 0.691406 -0.984376 0.972656 c -0.507812 0.320312 -1.246093 0.625 -2.023437 0.828125 c -0.542969 0.144531 -1.394531 0.304687 -1.796875 0.335937 c -0.121094 0.007813 -0.128906 0.007813 -0.160156 -0.027343 c -0.03125 -0.039063 -0.039063 -0.109375 -0.015625 -0.171875 c 0.015625 -0.046875 0.058593 -0.0625 0.347656 -0.117188 c 1.957031 -0.386718 3.3125 -1.21875 3.539063 -2.167968 c 0.03125 -0.136719 0.03125 -0.410157 0 -0.546876 c -0.226563 -0.953124 -1.578126 -1.78125 -3.539063 -2.167968 c -0.289063 -0.054688 -0.332031 -0.070313 -0.347656 -0.117188 c -0.023438 -0.0625 -0.015625 -0.132812 0.015625 -0.167968 c 0.019531 -0.023438 0.039062 -0.035157 0.085937 -0.035157 z m -3.914062 0.003907 c 0.046875 0 0.066406 0.011718 0.085937 0.03125 c 0.027344 0.039062 0.035156 0.109374 0.015625 0.171874 c -0.015625 0.042969 -0.058593 0.058594 -0.347656 0.117188 c -1.960937 0.386719 -3.3125 1.214844 -3.539063 2.167969 c -0.03125 0.132812 -0.03125 0.410156 0 0.546875 c 0.226563 0.949218 1.578126 1.78125 3.539063 2.167968 c 0.289063 0.054688 0.332031 0.070313 0.347656 0.117188 c 0.019531 0.058594 0.011719 0.132812 -0.019531 0.171875 c -0.027344 0.035156 -0.035156 0.035156 -0.15625 0.027344 c -0.402344 -0.03125 -1.253906 -0.191407 -1.796875 -0.335938 c -0.777344 -0.207031 -1.515625 -0.507812 -2.027344 -0.828125 c -0.441406 -0.28125 -0.820312 -0.65625 -0.980469 -0.972656 c -0.109374 -0.222656 -0.15625 -0.402344 -0.15625 -0.621094 c 0 -0.386718 0.15625 -0.726562 0.503907 -1.085937 c 0.234375 -0.246094 0.582031 -0.496094 0.996093 -0.710938 c 0.839844 -0.441406 1.957032 -0.761719 3.28125 -0.941406 c 0.128907 -0.019531 0.207032 -0.027344 0.253907 -0.023437 z m 0.4375 1.773437 c 0.046875 0 0.070312 0.015625 0.089843 0.050781 c 0.019532 0.03125 0.007813 0.078125 -0.023437 0.09375 c -0.011719 0.007813 -0.113281 0.039063 -0.226563 0.066406 c -0.535156 0.136719 -0.910156 0.308594 -1.089843 0.496094 c -0.035157 0.039063 -0.078125 0.09375 -0.097657 0.125 c -0.027343 0.054688 -0.03125 0.074219 -0.03125 0.152344 s 0.003907 0.097656 0.03125 0.152344 c 0.042969 0.078125 0.144532 0.183594 0.25 0.253906 c 0.203126 0.132812 0.554688 0.269531 0.941407 0.367188 c 0.097656 0.023437 0.191406 0.050781 0.207031 0.058593 c 0.089844 0.03125 0.054688 0.144531 -0.046875 0.152344 c -0.027344 0.003906 -0.0625 0.003906 -0.078125 0 c -0.019531 -0.003906 -0.105469 -0.011719 -0.191406 -0.023437 c -1.046875 -0.109376 -1.839844 -0.347657 -2.179688 -0.652344 c -0.109375 -0.097656 -0.175781 -0.238282 -0.160156 -0.339844 c 0.050781 -0.371094 0.734375 -0.691406 1.839844 -0.867188 c 0.167968 -0.023437 0.558594 -0.074218 0.710937 -0.085937 z m 3.015625 0 c 0.035156 -0.003906 0.09375 0 0.1875 0.011719 c 1.148437 0.113281 1.960937 0.355468 2.292968 0.679687 c 0.113282 0.105469 0.152344 0.195313 0.144532 0.3125 c -0.003906 0.09375 -0.035156 0.15625 -0.125 0.253907 c -0.3125 0.328124 -1.101563 0.574218 -2.257813 0.695312 c -0.238281 0.023438 -0.238281 0.023438 -0.265625 0.007812 c -0.050781 -0.027343 -0.066406 -0.097656 -0.027344 -0.132812 c 0.007813 -0.007812 0.101563 -0.039062 0.207032 -0.0625 c 0.566406 -0.144531 0.921875 -0.304688 1.117187 -0.5 c 0.097657 -0.101562 0.132813 -0.175781 0.132813 -0.28125 s -0.035156 -0.183594 -0.132813 -0.28125 c -0.195312 -0.199219 -0.546875 -0.355469 -1.117187 -0.5 c -0.105469 -0.027344 -0.199219 -0.054688 -0.207032 -0.066406 c -0.023437 -0.019532 -0.027343 -0.066406 -0.011718 -0.097656 c 0.011718 -0.023438 0.027344 -0.035157 0.0625 -0.039063 z m -1.484375 0.199219 c 0.453125 0.007812 0.839843 0.425781 0.765625 0.898437 c -0.070313 0.453125 -0.53125 0.761719 -0.964844 0.648438 c -0.207031 -0.054688 -0.40625 -0.207031 -0.5 -0.386719 c -0.246094 -0.457031 0 -1.007812 0.503906 -1.136719 c 0.066406 -0.019531 0.132813 -0.023437 0.195313 -0.023437 z m -0.011719 2.109375 l 0.992188 1.714843 h -0.003907 c 0.089844 0.164063 0.140625 0.351563 0.140625 0.539063 c 0 0.621094 -0.507812 1.125 -1.128906 1.125 s -1.125 -0.503906 -1.125 -1.125 c 0 -0.1875 0.046875 -0.375 0.136719 -0.539063 c 0 -0.003906 0.003906 -0.003906 0.003906 -0.007812 z m 0 0" fill="#241f31"/>
</svg>
